<svg width="23" height="26" viewBox="0 0 23 26" fill="none" xmlns="http://www.w3.org/2000/svg">
<path d="M16.0199 22.664V24.6281C16.0199 25.279 15.4923 25.8066 14.8415 25.8066H1.48531C0.834441 25.8066 0.306824 25.279 0.306824 24.6281V6.55801C0.306824 5.90714 0.834441 5.37952 1.48531 5.37952H5.02076V19.9142C5.02076 21.4304 6.25429 22.664 7.77056 22.664H16.0199ZM16.0199 5.77235V0.665585H7.77056C7.11969 0.665585 6.59207 1.1932 6.59207 1.84407V19.9142C6.59207 20.565 7.11969 21.0926 7.77056 21.0926H21.1267C21.7776 21.0926 22.3052 20.565 22.3052 19.9142V6.95084H17.1984C16.5503 6.95084 16.0199 6.42052 16.0199 5.77235ZM21.9601 4.24872L18.7221 1.01073C18.5011 0.789739 18.2013 0.665586 17.8888 0.665585L17.5913 0.665585V5.37952H22.3052V5.082C22.3052 4.76946 22.181 4.46972 21.9601 4.24872Z" fill="#1E2528"/>
</svg>
