<svg width="25" height="26" viewBox="0 0 25 26" fill="none" xmlns="http://www.w3.org/2000/svg">
<path d="M12.5 0.461548C5.59693 0.461548 0 6.06049 0 12.9615C0 19.8666 5.59693 25.4615 12.5 25.4615C19.4031 25.4615 25 19.8666 25 12.9615C25 6.06049 19.4031 0.461548 12.5 0.461548ZM12.5 6.0059C13.6692 6.0059 14.6169 6.95368 14.6169 8.12284C14.6169 9.29199 13.6692 10.2398 12.5 10.2398C11.3308 10.2398 10.3831 9.29199 10.3831 8.12284C10.3831 6.95368 11.3308 6.0059 12.5 6.0059ZM15.3226 18.8083C15.3226 19.1423 15.0518 19.4132 14.7177 19.4132H10.2823C9.94824 19.4132 9.67742 19.1423 9.67742 18.8083V17.5986C9.67742 17.2646 9.94824 16.9938 10.2823 16.9938H10.8871V13.768H10.2823C9.94824 13.768 9.67742 13.4972 9.67742 13.1632V11.9535C9.67742 11.6195 9.94824 11.3486 10.2823 11.3486H13.5081C13.8421 11.3486 14.1129 11.6195 14.1129 11.9535V16.9938H14.7177C15.0518 16.9938 15.3226 17.2646 15.3226 17.5986V18.8083Z" fill="#696B7C"/>
</svg>
