<svg width="87" height="60" viewBox="0 0 87 60" fill="none" xmlns="http://www.w3.org/2000/svg">
<path d="M31.73 22.5695C31.4782 22.316 31.1792 22.1149 30.8499 21.9777C30.5207 21.8405 30.1677 21.7699 29.8112 21.7699C29.4547 21.7699 29.1018 21.8405 28.7725 21.9777C28.4433 22.1149 28.1442 22.316 27.8925 22.5695L24.391 26.0916L20.8895 22.5695C20.3806 22.0584 19.6905 21.7713 18.9708 21.7713C18.2511 21.7713 17.5609 22.0584 17.052 22.5695C16.5431 23.0806 16.2572 23.7738 16.2572 24.4966C16.2572 25.2194 16.5431 25.9126 17.052 26.4237L20.5589 29.9403L17.052 33.4569C16.5431 33.968 16.2572 34.6612 16.2572 35.384C16.2572 36.1067 16.5431 36.7999 17.052 37.311C17.5609 37.8221 18.2511 38.1092 18.9708 38.1092C19.6905 38.1092 20.3806 37.8221 20.8895 37.311L24.391 33.789L27.8925 37.311C28.4013 37.8221 29.0915 38.1092 29.8112 38.1092C30.5309 38.1092 31.2211 37.8221 31.73 37.311C32.2389 36.7999 32.5248 36.1067 32.5248 35.384C32.5248 34.6612 32.2389 33.968 31.73 33.4569L28.2231 29.9403L31.73 26.4237C31.9824 26.1708 32.1826 25.8705 32.3192 25.5398C32.4558 25.2091 32.5262 24.8546 32.5262 24.4966C32.5262 24.1386 32.4558 23.7841 32.3192 23.4534C32.1826 23.1227 31.9824 22.8224 31.73 22.5695ZM49.5733 22.5695C50.0822 22.0584 50.7724 21.7713 51.4921 21.7713C52.2118 21.7713 52.902 22.0584 53.4109 22.5695C53.9198 23.0806 54.2056 23.7738 54.2056 24.4966C54.2056 25.2194 53.9198 25.9126 53.4109 26.4237L49.904 29.9403L53.4109 33.4569C53.9198 33.968 54.2056 34.6612 54.2056 35.384C54.2056 36.1067 53.9198 36.7999 53.4109 37.311C52.902 37.8221 52.2118 38.1092 51.4921 38.1092C50.7724 38.1092 50.0822 37.8221 49.5733 37.311L46.0719 33.789L42.5704 37.311C42.0615 37.8221 41.3713 38.1092 40.6517 38.1092C39.932 38.1092 39.2418 37.8221 38.7329 37.311C38.224 36.7999 37.9381 36.1067 37.9381 35.384C37.9381 34.6612 38.224 33.968 38.7329 33.4569L42.2398 29.9403L38.7329 26.4237C38.224 25.9126 37.9381 25.2194 37.9381 24.4966C37.9381 23.7738 38.224 23.0806 38.7329 22.5695C39.2418 22.0584 39.932 21.7713 40.6517 21.7713C41.3713 21.7713 42.0615 22.0584 42.5704 22.5695L46.0719 26.0916L49.5733 22.5695ZM62.3326 32.6621C61.6138 32.6621 60.9245 32.9489 60.4162 33.4593C59.908 33.9698 59.6224 34.6621 59.6224 35.384C59.6224 36.1058 59.908 36.7981 60.4162 37.3086C60.9245 37.819 61.6138 38.1058 62.3326 38.1058H73.173C73.8918 38.1058 74.5811 37.819 75.0893 37.3086C75.5976 36.7981 75.8831 36.1058 75.8831 35.384C75.8831 34.6621 75.5976 33.9698 75.0893 33.4593C74.5811 32.9489 73.8918 32.6621 73.173 32.6621H62.3326ZM14.9056 0C10.9524 0 7.1611 1.57721 4.36575 4.38465C1.57041 7.1921 0 10.9998 0 14.9701V44.9104C0 48.8807 1.57041 52.6884 4.36575 55.4959C7.1611 58.3033 10.9524 59.8805 14.9056 59.8805H71.8179C75.7711 59.8805 79.5625 58.3033 82.3578 55.4959C85.1531 52.6884 86.7235 48.8807 86.7235 44.9104V14.9701C86.7235 10.9998 85.1531 7.1921 82.3578 4.38465C79.5625 1.57721 75.7711 0 71.8179 0H14.9056ZM5.42022 14.9701C5.42022 9.71154 9.66968 5.44369 14.9056 5.44369H71.8179C77.0539 5.44369 81.3033 9.71154 81.3033 14.9701V44.9104C81.3033 47.437 80.304 49.8601 78.5251 51.6466C76.7463 53.4332 74.3336 54.4369 71.8179 54.4369H14.9056C12.3899 54.4369 9.97728 53.4332 8.19843 51.6466C6.41957 49.8601 5.42022 47.437 5.42022 44.9104V14.9701Z" fill="#F7DA84"/>
</svg>
