<svg width="36" height="16" viewBox="0 0 36 16" fill="none" xmlns="http://www.w3.org/2000/svg">
<path d="M34 0H31V5.5C31 5.77625 30.7763 6 30.5 6H29.5C29.2237 6 29 5.77625 29 5.5V0H25V5.5C25 5.77625 24.7763 6 24.5 6H23.5C23.2237 6 23 5.77625 23 5.5V0H19V5.5C19 5.77625 18.7763 6 18.5 6H17.5C17.2237 6 17 5.77625 17 5.5V0H13V5.5C13 5.77625 12.7762 6 12.5 6H11.5C11.2238 6 11 5.77625 11 5.5V0H7V5.5C7 5.77625 6.77625 6 6.5 6H5.5C5.22375 6 5 5.77625 5 5.5V0H2C0.895625 0 0 0.895625 0 2V14C0 15.1044 0.895625 16 2 16H34C35.1044 16 36 15.1044 36 14V2C36 0.895625 35.1044 0 34 0Z" fill="#F7DA84"/>
</svg>
